<?xml version="1.0" encoding="UTF-8"?>
<svg version="1.1" xmlns="http://www.w3.org/2000/svg" width="109" height="57">
<path d="M0 0 C2.37021847 1.44974528 3.63659153 2.69550787 4.43359375 5.375 C4.55347656 5.98859375 4.67335937 6.6021875 4.796875 7.234375 C7.06609036 7.36926891 9.3375817 7.46631495 11.609375 7.546875 C12.87394531 7.60488281 14.13851562 7.66289062 15.44140625 7.72265625 C16.54871094 7.56152344 17.65601563 7.40039062 18.796875 7.234375 C20.50439322 4.91645614 20.50439322 4.91645614 21.796875 2.234375 C26.64745551 -1.56427238 31.24826223 -1.37270647 37.20703125 -1.25390625 C44.38613084 -0.27742372 50.1068155 3.81958224 54.796875 9.234375 C55.27431365 11.96879636 55.6166846 14.48783648 55.796875 17.234375 C55.91933309 20.02998667 55.91933309 20.02998667 56.796875 22.234375 C58.45384879 22.92478074 60.1224511 23.5874385 61.796875 24.234375 C64.89394928 26.98732992 66.47172204 28.60861019 67.28515625 32.67578125 C67.50215837 36.83602189 67.30747989 39.43199589 65.046875 42.984375 C52.39998874 51.73991164 37.49984673 56.30624861 22.15234375 56.47265625 C21.42429031 56.480728 20.69623688 56.48879974 19.94612122 56.49711609 C18.40559214 56.51089384 16.86503334 56.52164396 15.32446289 56.52954102 C13.78400406 56.54095182 12.24358124 56.56122624 10.70336914 56.59106445 C-7.34997469 56.93955454 -26.81911564 54.06122714 -41.203125 42.234375 C-43.08394162 38.47274176 -42.85563547 34.32018825 -42.203125 30.234375 C-40.2338958 26.65512453 -37.97892039 23.78537534 -34 22.55078125 C-33.40703125 22.44636719 -32.8140625 22.34195312 -32.203125 22.234375 C-32.13996094 21.36554687 -32.07679687 20.49671875 -32.01171875 19.6015625 C-30.88657763 9.01339241 -30.88657763 9.01339241 -27.015625 5.671875 C-25.76571209 4.82754608 -24.49489519 4.01315827 -23.203125 3.234375 C-21.6871875 2.05875 -21.6871875 2.05875 -20.140625 0.859375 C-14.42384106 -2.2328854 -6.03642959 -2.09776631 0 0 Z M-9.203125 7.234375 C-9.203125 8.884375 -9.203125 10.534375 -9.203125 12.234375 C-8.873125 12.234375 -8.543125 12.234375 -8.203125 12.234375 C-8.203125 10.584375 -8.203125 8.934375 -8.203125 7.234375 C-8.533125 7.234375 -8.863125 7.234375 -9.203125 7.234375 Z M32.796875 7.234375 C32.796875 8.884375 32.796875 10.534375 32.796875 12.234375 C33.126875 12.234375 33.456875 12.234375 33.796875 12.234375 C33.796875 10.584375 33.796875 8.934375 33.796875 7.234375 C33.466875 7.234375 33.136875 7.234375 32.796875 7.234375 Z " fill="#ABC655" transform="translate(42.203125,0.765625)"/>
<path d="M0 0 C1.33333333 0 2.66666667 0 4 0 C4.91906128 -0.05220703 4.91906128 -0.05220703 5.85668945 -0.10546875 C13.06452764 -0.347386 19.2620856 1.14757455 26.1875 3 C46.4753733 8.00189555 65.08286168 6.79610457 85.14697266 1.42529297 C89.01955729 0.39861622 92.49294944 -0.23630696 96.5 -0.125 C97.78390625 -0.09792969 97.78390625 -0.09792969 99.09375 -0.0703125 C99.7228125 -0.04710937 100.351875 -0.02390625 101 0 C101 0.66 101 1.32 101 2 C101.33 1.34 101.66 0.68 102 0 C102.99 0 103.98 0 105 0 C104.75659257 3.28600034 103.84079329 4.14876692 101.37890625 6.44921875 C98.17492701 9.02581547 94.89446386 10.60220003 91.0625 12.125 C89.89847656 12.60195313 88.73445313 13.07890625 87.53515625 13.5703125 C76.02599382 17.51188166 64.65663231 18.47948758 52.5625 18.3125 C51.88745422 18.3065683 51.21240845 18.3006366 50.51690674 18.29452515 C33.76387821 18.14524956 17.46809874 17.62028093 3 8 C0.8522582 5.03759752 0 3.68553144 0 0 Z " fill="#C8CCB3" transform="translate(2,38)"/>
<path d="M0 0 C9.66348993 -0.7519142 16.34642437 -0.24898685 24 6 C28.17487098 9.66306543 28.6463933 12.61017666 29 18 C29.12245809 20.79561167 29.12245809 20.79561167 30 23 C31.65697379 23.69040574 33.3255761 24.3530635 35 25 C38.09707428 27.75295492 39.67484704 29.37423519 40.48828125 33.44140625 C40.70528337 37.60164689 40.51060489 40.19762089 38.25 43.75 C25.52684843 52.5583357 10.55091639 57.14353383 -4.890625 57.16796875 C-5.63528015 57.17129715 -6.3799353 57.17462555 -7.14715576 57.17805481 C-8.71707547 57.18309569 -10.2870058 57.18546402 -11.85693359 57.18530273 C-14.22902605 57.18748074 -16.60064637 57.20564315 -18.97265625 57.22460938 C-26.86008572 57.2529076 -34.33088642 57.11367668 -42 55 C-42 54.67 -42 54.34 -42 54 C-40.7625 53.979375 -39.525 53.95875 -38.25 53.9375 C-37.55390625 53.92589844 -36.8578125 53.91429687 -36.140625 53.90234375 C-34 54 -34 54 -32.27490234 54.49121094 C-11.70628013 59.09144797 14.65686592 55.16240115 33 45 C35.74465571 42.63423615 36.84598562 41.46204315 38 38 C37.01 38 36.02 38 35 38 C34.67 38.99 34.34 39.98 34 41 C33.34 40.67 32.68 40.34 32 40 C32.33 39.67 32.66 39.34 33 39 C30.03 38.67 27.06 38.34 24 38 C28 36 28 36 31 35 C31 33.35 31 31.7 31 30 C30.34 29.67 29.68 29.34 29 29 C28.34 29.33 27.68 29.66 27 30 C24.6670134 30.04022391 22.33293334 30.04320247 20 30 C19.34 28.68 18.68 27.36 18 26 C19 25 19 25 22.5625 24.9375 C23.696875 24.958125 24.83125 24.97875 26 25 C26 24.01 26 23.02 26 22 C25.2265625 22.2475 25.2265625 22.2475 24.4375 22.5 C18.73386159 23.66997711 14.4660024 23.39210514 9.578125 20.265625 C5.9429999 17.35032665 4.19111422 14.3924036 3.5625 9.8125 C4.03785378 6.7566543 4.56708908 5.82468319 7 4 C7.66 4.33 8.32 4.66 9 5 C8.34 5.99 7.68 6.98 7 8 C7 8.99 7 9.98 7 11 C7.53625 10.34 8.0725 9.68 8.625 9 C11 7 11 7 14.25 6.75 C15.1575 6.8325 16.065 6.915 17 7 C17 7.66 17 8.32 17 9 C16.34 9 15.68 9 15 9 C15.495 10.98 15.495 10.98 16 13 C17.98 13 19.96 13 22 13 C21.25 17.75 21.25 17.75 19 20 C20.98 19.67 22.96 19.34 25 19 C26.18977308 14.05194656 26.18977308 14.05194656 24.625 9.375 C17.04555045 2.51740279 10.1085678 1.17186128 0 1 C0 0.67 0 0.34 0 0 Z " fill="#687938" transform="translate(69,0)"/>
<path d="M0 0 C1.921875 1.52734375 1.921875 1.52734375 3 3 C2.46890625 2.83628906 1.9378125 2.67257812 1.390625 2.50390625 C-1.53876764 1.88643623 -4.25822936 1.90498075 -7.25 1.9375 C-8.86648437 1.95103516 -8.86648437 1.95103516 -10.515625 1.96484375 C-11.74539062 1.98224609 -11.74539062 1.98224609 -13 2 C-11.88625 2.45375 -10.7725 2.9075 -9.625 3.375 C-6 5 -6 5 -4 7 C-3.49228408 10.72325007 -3.86631729 12.72149435 -5.5 16.125 C-9.29897659 20.49382308 -13.36640017 22.68396802 -19.125 23.375 C-22.2797633 22.96350914 -25.03126343 22.13094727 -28 21 C-28.66 21.66 -29.32 22.32 -30 23 C-29.17674687 11.67606919 -29.17674687 11.67606919 -26.5546875 7.94140625 C-24.78543515 6.41413684 -22.99984035 5.20566507 -21 4 C-19.989375 3.21625 -18.97875 2.4325 -17.9375 1.625 C-12.64965992 -1.26697661 -5.80206218 -0.80908153 0 0 Z M-7 8 C-7 9.65 -7 11.3 -7 13 C-6.67 13 -6.34 13 -6 13 C-6 11.35 -6 9.7 -6 8 C-6.33 8 -6.66 8 -7 8 Z " fill="#262624" transform="translate(40,0)"/>
<path d="M0 0 C0.66 0.33 1.32 0.66 2 1 C1.01 2.485 1.01 2.485 0 4 C0 4.99 0 5.98 0 7 C0.53625 6.34 1.0725 5.68 1.625 5 C4 3 4 3 7.25 2.75 C8.61125 2.87375 8.61125 2.87375 10 3 C10 3.66 10 4.32 10 5 C9.34 5 8.68 5 8 5 C8.33 6.32 8.66 7.64 9 9 C10.98 9 12.96 9 15 9 C14.71097731 12.46827222 14.18328212 13.80653554 11.75 16.375 C9 18 9 18 6.5 18.0625 C2.10403209 16.19421364 -0.39996543 12.90005185 -3 9 C-3.55299539 3.69124424 -3.55299539 3.69124424 -1.5 1.125 C-1.005 0.75375 -0.51 0.3825 0 0 Z " fill="#242521" transform="translate(76,4)"/>
<path d="M0 0 C0.66 0.33 1.32 0.66 2 1 C0.68 2.65 -0.64 4.3 -2 6 C-1.67 6.33 -1.34 6.66 -1 7 C-1 8.65 -1 10.3 -1 12 C7.91 13.485 7.91 13.485 17 15 C17 15.66 17 16.32 17 17 C18.093125 16.938125 19.18625 16.87625 20.3125 16.8125 C25.79640423 16.78296371 30.80042462 18.39424878 36 20 C36 20.33 36 20.66 36 21 C29.01456273 20.7354001 22.53868761 19.75521737 15.8125 17.9375 C10.05079759 16.38249509 4.97374094 15.57330422 -1 16 C-0.67 16.66 -0.34 17.32 0 18 C-0.99 17.67 -1.98 17.34 -3 17 C-3 16.34 -3 15.68 -3 15 C-3.99 15 -4.98 15 -6 15 C-5.01 17.31 -4.02 19.62 -3 22 C-6.875 20.25 -6.875 20.25 -8 18 C-8.62133059 13.69787555 -8.97036679 9.66604513 -6.73046875 5.8203125 C-4.66214097 3.39468235 -2.8664606 1.4332303 0 0 Z " fill="#5B6735" transform="translate(8,23)"/>
<path d="M0 0 C1.2375 -0.020625 2.475 -0.04125 3.75 -0.0625 C4.44609375 -0.07410156 5.1421875 -0.08570313 5.859375 -0.09765625 C8 0 8 0 9.82348633 0.49780273 C12.26811503 1.06186345 14.45651232 1.12952227 16.96484375 1.1328125 C17.92447021 1.13474609 18.88409668 1.13667969 19.87280273 1.13867188 C20.88415283 1.13416016 21.89550293 1.12964844 22.9375 1.125 C23.96625244 1.12306641 24.99500488 1.12113281 26.05493164 1.11914062 C33.41275486 1.07743683 40.68004408 0.78678989 48 0 C48 0.66 48 1.32 48 2 C34.09445896 8.03448007 17.53264328 7.58353806 3.4375 2.375 C2.303125 1.92125 1.16875 1.4675 0 1 C0 0.67 0 0.34 0 0 Z " fill="#D6DBC2" transform="translate(30,43)"/>
<path d="M0 0 C1 1.75 1 1.75 0.6875 3.9375 C0.3471875 4.8346875 0.3471875 4.8346875 0 5.75 C-0.5775 5.275625 -1.155 4.80125 -1.75 4.3125 C-3.92582084 2.8015133 -5.42602448 2.20963849 -8 1.75 C-7.814375 2.554375 -7.62875 3.35875 -7.4375 4.1875 C-7.293125 5.033125 -7.14875 5.87875 -7 6.75 C-7.33 7.08 -7.66 7.41 -8 7.75 C-10.33944736 7.46269945 -12.6739143 7.13063221 -15 6.75 C-13.92598892 9.66517292 -13.22189824 11.52810176 -11 13.75 C-8.42938689 14.39767793 -8.42938689 14.39767793 -6 14.75 C-6 15.08 -6 15.41 -6 15.75 C-13.97002725 16.36307902 -13.97002725 16.36307902 -17.625 14.1875 C-19 11.75 -19 11.75 -19.0625 8.3125 C-17.81570843 4.13208121 -16.39850217 2.43718776 -13 -0.25 C-9.05123753 -1.96113041 -3.68740115 -2.30462572 0 0 Z " fill="#ECECEC" transform="translate(32,5.25)"/>
<path d="M0 0 C3.7771068 1.99545265 7.10223224 4.09283108 9 8 C8.875 11.625 8.875 11.625 8 15 C4.77208445 17.1519437 3.71599191 17.20086443 0 17 C0.474375 16.4225 0.94875 15.845 1.4375 15.25 C2.9484867 13.07417916 3.54036151 11.57397552 4 9 C2.02 9 0.04 9 -2 9 C-2.33 7.68 -2.66 6.36 -3 5 C-2.34 5 -1.68 5 -1 5 C-1 4.34 -1 3.68 -1 3 C-4.79303725 4.00193437 -7.71536341 4.81024227 -11 7 C-11.1875 4.625 -11.1875 4.625 -11 2 C-7.29211504 -0.47192331 -4.30054275 -0.66788732 0 0 Z " fill="#EDEDED" transform="translate(87,4)"/>
<path d="M0 0 C1.03898437 0.13277344 2.07796875 0.26554687 3.1484375 0.40234375 C18.75201703 2.38511905 33.26422886 3.38119621 49 2 C48.67 2.99 48.34 3.98 48 5 C42.944623 6.68512567 37.58861361 6.26506087 32.2980957 6.29516602 C30.91062114 6.30656112 29.52318591 6.32680928 28.13598633 6.35668945 C18.02965181 6.57399082 9.58679913 5.32200941 0 2 C0 1.34 0 0.68 0 0 Z " fill="#D0D4BC" transform="translate(25,50)"/>
<path d="M0 0 C0.66 0 1.32 0 2 0 C0.5023206 4.37783211 -2.22693379 5.51552788 -6.25 7.5 C-17.50681382 12.99607759 -29.32660184 16.14808726 -41.890625 16.16796875 C-42.63528015 16.17129715 -43.3799353 16.17462555 -44.14715576 16.17805481 C-45.71707547 16.18309569 -47.2870058 16.18546402 -48.85693359 16.18530273 C-51.22902605 16.18748074 -53.60064637 16.20564315 -55.97265625 16.22460938 C-63.86008572 16.2529076 -71.33088642 16.11367668 -79 14 C-79 13.67 -79 13.34 -79 13 C-77.7625 12.979375 -76.525 12.95875 -75.25 12.9375 C-74.55390625 12.92589844 -73.8578125 12.91429687 -73.140625 12.90234375 C-71 13 -71 13 -69.27490234 13.49121094 C-48.70628013 18.09144797 -22.34313408 14.16240115 -4 4 C-2.64574643 2.68792042 -1.3067041 1.35944104 0 0 Z " fill="#44453D" transform="translate(106,41)"/>
<path d="M0 0 C0.495 0.99 0.495 0.99 1 2 C0.10796875 2.02578125 -0.7840625 2.0515625 -1.703125 2.078125 C-2.87359375 2.13484375 -4.0440625 2.1915625 -5.25 2.25 C-6.99023438 2.31960937 -6.99023438 2.31960937 -8.765625 2.390625 C-12.5488369 3.10340405 -13.67559098 3.99319567 -16 7 C-16.68522919 8.32388941 -17.35512883 9.65598981 -18 11 C-21.2519343 11.03538606 -24.49845598 10.99348388 -27.75 10.9375 C-28.67039062 10.94845703 -29.59078125 10.95941406 -30.5390625 10.97070312 C-33.20246011 10.90315319 -35.44864014 10.77682015 -38 10 C-40.12284945 7.75613461 -40.84144076 5.93301922 -42 3 C-40.125 3.25 -40.125 3.25 -38 4 C-37.34 5.32 -36.68 6.64 -36 8 C-30.39 8.33 -24.78 8.66 -19 9 C-18.67 7.68 -18.34 6.36 -18 5 C-13.65748431 -1.82395323 -7.22701719 -0.47615779 0 0 Z " fill="#B4C76F" transform="translate(82,1)"/>
<path d="M0 0 C1.24652344 -0.02578125 2.49304688 -0.0515625 3.77734375 -0.078125 C7.0625 0.25 7.0625 0.25 9.00390625 1.765625 C9.35324219 2.25546875 9.70257813 2.7453125 10.0625 3.25 C9.53140625 3.08628906 9.0003125 2.92257812 8.453125 2.75390625 C5.52373236 2.13643623 2.80427064 2.15498075 -0.1875 2.1875 C-1.80398437 2.20103516 -1.80398437 2.20103516 -3.453125 2.21484375 C-4.68289062 2.23224609 -4.68289062 2.23224609 -5.9375 2.25 C-4.82375 2.70375 -3.71 3.1575 -2.5625 3.625 C1.0625 5.25 1.0625 5.25 3.0625 7.25 C3.62131444 11.34797257 3.1995529 13.01872323 1.0625 16.625 C0.4025 17.49125 -0.2575 18.3575 -0.9375 19.25 C-2.00296953 16.0535914 -2.01177838 13.59252724 -1.9375 10.25 C-1.2775 10.58 -0.6175 10.91 0.0625 11.25 C-0.28194881 8.77733235 -0.28194881 8.77733235 -0.9375 6.25 C-3.58208379 4.92770811 -5.61511301 5.15322806 -8.5625 5.1875 C-10.06683594 5.20103516 -10.06683594 5.20103516 -11.6015625 5.21484375 C-12.75785156 5.23224609 -12.75785156 5.23224609 -13.9375 5.25 C-8.84773978 1.09782719 -6.61611227 0.08193328 0 0 Z " fill="#495036" transform="translate(32.9375,-0.25)"/>
<path d="M0 0 C6.93 0.99 13.86 1.98 21 3 C21 3.66 21 4.32 21 5 C22.093125 4.938125 23.18625 4.87625 24.3125 4.8125 C29.79640423 4.78296371 34.80042462 6.39424878 40 8 C40 8.33 40 8.66 40 9 C33.01456273 8.7354001 26.53868761 7.75521737 19.8125 5.9375 C14.05079759 4.38249509 8.97374094 3.57330422 3 4 C3.33 4.66 3.66 5.32 4 6 C3.01 5.67 2.02 5.34 1 5 C0.67 3.35 0.34 1.7 0 0 Z " fill="#7F8F4B" transform="translate(4,35)"/>
<path d="M0 0 C1.32 0.66 2.64 1.32 4 2 C3.34 3.32 2.68 4.64 2 6 C2.99 6 3.98 6 5 6 C5 6.99 5 7.98 5 9 C0.67265609 11.22923777 -2.28400182 10.92470553 -7 10 C-6.02223933 8.51990357 -5.0427506 7.04094856 -4.0625 5.5625 C-3.51722656 4.73878906 -2.97195312 3.91507813 -2.41015625 3.06640625 C-1 1 -1 1 0 0 Z " fill="#97B342" transform="translate(12,20)"/>
<path d="M0 0 C0.66 0.33 1.32 0.66 2 1 C1.195625 1.763125 0.39125 2.52625 -0.4375 3.3125 C-3.16799024 5.79430898 -3.16799024 5.79430898 -4 9 C-6.77245014 9.13487595 -9.53837088 9.23400807 -12.3125 9.3125 C-13.49102539 9.3753418 -13.49102539 9.3753418 -14.69335938 9.43945312 C-16.90027433 9.48640876 -18.84283979 9.47422058 -21 9 C-23.06889398 6.57508219 -24 5.19969005 -24 2 C-23.01 2.33 -22.02 2.66 -21 3 C-20.3125 5.0625 -20.3125 5.0625 -20 7 C-17.73078464 7.13489391 -15.4592933 7.23193995 -13.1875 7.3125 C-11.92292969 7.37050781 -10.65835938 7.42851562 -9.35546875 7.48828125 C-7.69451172 7.24658203 -7.69451172 7.24658203 -6 7 C-4.16603374 4.66569337 -4.16603374 4.66569337 -3 2 C-2.01 1.34 -1.02 0.68 0 0 Z " fill="#596041" transform="translate(67,1)"/>
<path d="M0 0 C0.66 0.33 1.32 0.66 2 1 C1.154375 1.845625 0.30875 2.69125 -0.5625 3.5625 C-2.93653627 6.3791532 -3.00254102 6.84499768 -2.9375 10.8125 C-2.628125 11.864375 -2.31875 12.91625 -2 14 C0.76452033 15.38226016 3.0461363 15.09525387 6.125 15.0625 C7.22070312 15.05347656 8.31640625 15.04445313 9.4453125 15.03515625 C10.28835937 15.02355469 11.13140625 15.01195312 12 15 C8.90255097 18.09744903 5.26165593 17.96430774 1 18 C-2.5625 17.0625 -2.5625 17.0625 -5 16 C-5.66 16.66 -6.32 17.32 -7 18 C-5.71746597 4.92580981 -5.71746597 4.92580981 -2.375 1.6875 C-1.59125 1.130625 -0.8075 0.57375 0 0 Z " fill="#50563F" transform="translate(17,5)"/>
<path d="M0 0 C0.66 0.33 1.32 0.66 2 1 C1.01 2.485 1.01 2.485 0 4 C0 4.99 0 5.98 0 7 C0.53625 6.34 1.0725 5.68 1.625 5 C4 3 4 3 7.25 2.75 C8.61125 2.87375 8.61125 2.87375 10 3 C10 3.66 10 4.32 10 5 C8.8553125 4.9071875 8.8553125 4.9071875 7.6875 4.8125 C5.03232946 4.8036334 5.03232946 4.8036334 3.125 6.0625 C1.35217817 9.11569315 2.30764694 11.66411708 3 15 C2.34 15 1.68 15 1 15 C-1.49318995 11.92017712 -2.89461991 9.76776919 -3.4375 5.8125 C-2.96214622 2.7566543 -2.43291092 1.82468319 0 0 Z " fill="#4C503F" transform="translate(76,4)"/>
<path d="M0 0 C1.875 0.25 1.875 0.25 4 1 C4.66 2.32 5.32 3.64 6 5 C11.94 5.33 17.88 5.66 24 6 C24 6.66 24 7.32 24 8 C20.7480657 8.03538606 17.50154402 7.99348388 14.25 7.9375 C13.32960938 7.94845703 12.40921875 7.95941406 11.4609375 7.97070312 C8.79753989 7.90315319 6.55135986 7.77682015 4 7 C1.87715055 4.75613461 1.15855924 2.93301922 0 0 Z " fill="#C2D679" transform="translate(40,4)"/>
<path d="M0 0 C-0.33 0.66 -0.66 1.32 -1 2 C-4.28519475 3.09506492 -6.73663415 3.09960608 -10.1875 3.0625 C-11.81751953 3.04896484 -11.81751953 3.04896484 -13.48046875 3.03515625 C-14.31191406 3.02355469 -15.14335938 3.01195312 -16 3 C-13.67865269 0.24108243 -12.13318769 -0.43688742 -8.5625 -0.75 C-7.41974609 -0.86601563 -7.41974609 -0.86601563 -6.25390625 -0.984375 C-3.98333821 -1.00011551 -2.1661875 -0.65133656 0 0 Z " fill="#CACEB6" transform="translate(74,53)"/>
<path d="M0 0 C3.82864339 0.61618311 6.94456167 1.76782593 10.4375 3.4375 C14.24023883 5.21553735 17.96696668 6.8009901 22 8 C18.00928005 9.60019088 15.42095611 8.30230373 11.5625 6.75 C10.45003906 6.31171875 9.33757813 5.8734375 8.19140625 5.421875 C5.28917044 4.12883481 2.64365838 2.75914464 0 1 C0 0.67 0 0.34 0 0 Z " fill="#46473F" transform="translate(5,45)"/>
<path d="M0 0 C7.75 -0.125 7.75 -0.125 10 1 C9.67 1.99 9.34 2.98 9 4 C6.69 4 4.38 4 2 4 C1.34 2.68 0.68 1.36 0 0 Z " fill="#81A12C" transform="translate(87,26)"/>
<path d="M0 0 C3.63 0.33 7.26 0.66 11 1 C11 1.66 11 2.32 11 3 C8.22899606 4.38550197 6.0665294 4.1877467 3 4 C2.01 3.34 1.02 2.68 0 2 C0 1.34 0 0.68 0 0 Z " fill="#C2D776" transform="translate(49,27)"/>
<path d="M0 0 C5.94 0.99 5.94 0.99 12 2 C12 2.33 12 2.66 12 3 C7.545 3.495 7.545 3.495 3 4 C3.33 4.66 3.66 5.32 4 6 C3.01 5.67 2.02 5.34 1 5 C0.67 3.35 0.34 1.7 0 0 Z " fill="#7E8B57" transform="translate(4,35)"/>
<path d="M0 0 C-0.33 1.65 -0.66 3.3 -1 5 C-1.99 5 -2.98 5 -4 5 C-3.67 4.67 -3.34 4.34 -3 4 C-5.97 3.67 -8.94 3.34 -12 3 C-7.92834397 0.96417198 -4.54795711 0 0 0 Z " fill="#7E8A58" transform="translate(105,35)"/>
<path d="M0 0 C0.99 0.33 1.98 0.66 3 1 C3.33 2.32 3.66 3.64 4 5 C8.62 5 13.24 5 18 5 C18 5.33 18 5.66 18 6 C12.72 6 7.44 6 2 6 C1.34 4.02 0.68 2.04 0 0 Z " fill="#2A2B26" transform="translate(43,3)"/>
<path d="M0 0 C-0.61488281 0.04898437 -1.22976562 0.09796875 -1.86328125 0.1484375 C-2.67152344 0.22320312 -3.47976562 0.29796875 -4.3125 0.375 C-5.51326172 0.47941406 -5.51326172 0.47941406 -6.73828125 0.5859375 C-9.27224441 0.89564426 -9.27224441 0.89564426 -12 3 C-12 2.34 -12 1.68 -12 1 C-13.32 0.67 -14.64 0.34 -16 0 C-14.12696296 -1.87303704 -11.08263116 -1.47495882 -8.5625 -1.6875 C-7.38816406 -1.79449219 -6.21382812 -1.90148437 -5.00390625 -2.01171875 C-2 -2 -2 -2 0 0 Z " fill="#91A84B" transform="translate(85,4)"/>
<path d="M0 0 C0 0.66 0 1.32 0 2 C-4.43076923 4.09230769 -4.43076923 4.09230769 -7.3125 3.625 C-7.869375 3.41875 -8.42625 3.2125 -9 3 C-7.14340032 -0.71319936 -3.69365381 -0.09982848 0 0 Z " fill="#81A22D" transform="translate(17,27)"/>
<path d="M0 0 C0.66 0.33 1.32 0.66 2 1 C1.505 1.4125 1.01 1.825 0.5 2.25 C-1.43386092 4.12202338 -1.43386092 4.12202338 -1 8 C-2.32 7.34 -3.64 6.68 -5 6 C-3.35 4.02 -1.7 2.04 0 0 Z " fill="#86A139" transform="translate(7,25)"/>
<path d="M0 0 C3.3 0 6.6 0 10 0 C10 0.66 10 1.32 10 2 C7.04335481 3.4783226 4.25770263 3.06032783 1 3 C0.67 2.01 0.34 1.02 0 0 Z " fill="#8D9672" transform="translate(83,20)"/>
<path d="M0 0 C1.70884005 1.62339805 3.37446717 3.29319053 5 5 C5 5.66 5 6.32 5 7 C3.0625 6.3125 3.0625 6.3125 1 5 C0.25 2.375 0.25 2.375 0 0 Z " fill="#C2D775" transform="translate(43,16)"/>
<path d="M0 0 C1.32 1.32 2.64 2.64 4 4 C2.515 6.475 2.515 6.475 1 9 C-0.06546953 5.8035914 -0.07427838 3.34252724 0 0 Z " fill="#444937" transform="translate(31,10)"/>
</svg>
